<?xml version="1.0" encoding="UTF-8" standalone="no"?>
<!DOCTYPE svg PUBLIC "-//W3C//DTD SVG 1.1//EN"
 "http://www.w3.org/Graphics/SVG/1.1/DTD/svg11.dtd">
<!-- Generated by graphviz version 10.0.1 (20240210.2158)
 -->
<!-- Title: dependency&#45;cruiser output Pages: 1 -->
<svg width="860pt" height="198pt"
 viewBox="0.00 0.00 859.75 198.00" xmlns="http://www.w3.org/2000/svg" xmlns:xlink="http://www.w3.org/1999/xlink">
<g id="graph0" class="graph" transform="scale(1 1) rotate(0) translate(4 194)">
<title>dependency&#45;cruiser output</title>
<polygon fill="white" stroke="none" points="-4,4 -4,-194 855.75,-194 855.75,4 -4,4"/>
<g id="clust1" class="cluster">
<title>cluster_src</title>
<path fill="#ffffff" stroke="black" stroke-width="2" d="M20,-8C20,-8 831.75,-8 831.75,-8 837.75,-8 843.75,-14 843.75,-20 843.75,-20 843.75,-170 843.75,-170 843.75,-176 837.75,-182 831.75,-182 831.75,-182 20,-182 20,-182 14,-182 8,-176 8,-170 8,-170 8,-20 8,-20 8,-14 14,-8 20,-8"/>
<text text-anchor="middle" x="425.88" y="-169.45" font-family="Helvetica,sans-Serif" font-weight="bold" font-size="9.00">src</text>
</g>
<g id="clust2" class="cluster">
<title>cluster_src/components</title>
<path fill="#ffffff" stroke="black" stroke-width="2" d="M157,-16C157,-16 823.75,-16 823.75,-16 829.75,-16 835.75,-22 835.75,-28 835.75,-28 835.75,-144 835.75,-144 835.75,-150 829.75,-156 823.75,-156 823.75,-156 157,-156 157,-156 151,-156 145,-150 145,-144 145,-144 145,-28 145,-28 145,-22 151,-16 157,-16"/>
<text text-anchor="middle" x="490.38" y="-143.45" font-family="Helvetica,sans-Serif" font-weight="bold" font-size="9.00">components</text>
</g>
<g id="clust3" class="cluster">
<title>cluster_src/components/Counter</title>
<path fill="#ffffff" stroke="black" stroke-width="2" d="M463.25,-34C463.25,-34 633,-34 633,-34 639,-34 645,-40 645,-46 645,-46 645,-104 645,-104 645,-110 639,-116 633,-116 633,-116 463.25,-116 463.25,-116 457.25,-116 451.25,-110 451.25,-104 451.25,-104 451.25,-46 451.25,-46 451.25,-40 457.25,-34 463.25,-34"/>
<text text-anchor="middle" x="548.12" y="-103.45" font-family="Helvetica,sans-Serif" font-weight="bold" font-size="9.00">Counter</text>
</g>
<g id="clust4" class="cluster">
<title>cluster_src/components/LocalCounter</title>
<path fill="#ffffff" stroke="black" stroke-width="2" d="M227,-48C227,-48 431.25,-48 431.25,-48 437.25,-48 443.25,-54 443.25,-60 443.25,-60 443.25,-118 443.25,-118 443.25,-124 437.25,-130 431.25,-130 431.25,-130 227,-130 227,-130 221,-130 215,-124 215,-118 215,-118 215,-60 215,-60 215,-54 221,-48 227,-48"/>
<text text-anchor="middle" x="329.12" y="-117.45" font-family="Helvetica,sans-Serif" font-weight="bold" font-size="9.00">LocalCounter</text>
</g>
<g id="clust5" class="cluster">
<title>cluster_src/components/OperandButton</title>
<path fill="#ffffff" stroke="black" stroke-width="2" d="M665,-29C665,-29 815.75,-29 815.75,-29 821.75,-29 827.75,-35 827.75,-41 827.75,-41 827.75,-69 827.75,-69 827.75,-75 821.75,-81 815.75,-81 815.75,-81 665,-81 665,-81 659,-81 653,-75 653,-69 653,-69 653,-41 653,-41 653,-35 659,-29 665,-29"/>
<text text-anchor="middle" x="740.38" y="-68.45" font-family="Helvetica,sans-Serif" font-weight="bold" font-size="9.00">OperandButton</text>
</g>
<!-- src/App.tsx -->
<g id="node1" class="node">
<title>src/App.tsx</title>
<g id="a_node1"><a xlink:href="src/App.tsx" xlink:title="App.tsx">
<path fill="#bbfeff" stroke="black" d="M131.08,-47.88C131.08,-47.88 88.92,-47.88 88.92,-47.88 85.96,-47.88 83,-44.92 83,-41.96 83,-41.96 83,-36.04 83,-36.04 83,-33.08 85.96,-30.12 88.92,-30.12 88.92,-30.12 131.08,-30.12 131.08,-30.12 134.04,-30.12 137,-33.08 137,-36.04 137,-36.04 137,-41.96 137,-41.96 137,-44.92 134.04,-47.88 131.08,-47.88"/>
<text text-anchor="start" x="95" y="-35.33" font-family="Helvetica,sans-Serif" font-size="9.00">App.tsx</text>
</a>
</g>
</g>
<!-- src/components/index.ts -->
<g id="node2" class="node">
<title>src/components/index.ts</title>
<g id="a_node2"><a xlink:href="src/components/index.ts" xlink:title="index.ts">
<path fill="#ddfeff" stroke="black" d="M201.08,-47.88C201.08,-47.88 158.92,-47.88 158.92,-47.88 155.96,-47.88 153,-44.92 153,-41.96 153,-41.96 153,-36.04 153,-36.04 153,-33.08 155.96,-30.12 158.92,-30.12 158.92,-30.12 201.08,-30.12 201.08,-30.12 204.04,-30.12 207,-33.08 207,-36.04 207,-36.04 207,-41.96 207,-41.96 207,-44.92 204.04,-47.88 201.08,-47.88"/>
<text text-anchor="start" x="164.25" y="-35.33" font-family="Helvetica,sans-Serif" font-size="9.00">index.ts</text>
</a>
</g>
</g>
<!-- src/App.tsx&#45;&gt;src/components/index.ts -->
<g id="edge1" class="edge">
<title>src/App.tsx&#45;&gt;src/components/index.ts</title>
<path fill="none" stroke="#000000" stroke-width="2" stroke-opacity="0.200000" d="M137.49,-39C139.7,-39 141.97,-39 144.24,-39"/>
<polygon fill="#000000" fill-opacity="0.200000" stroke="#000000" stroke-width="2" stroke-opacity="0.200000" points="143.9,-41.1 149.9,-39 143.9,-36.9 143.9,-41.1"/>
</g>
<!-- src/components/OperandButton/index.ts -->
<g id="node5" class="node">
<title>src/components/OperandButton/index.ts</title>
<g id="a_node5"><a xlink:href="src/components/OperandButton/index.ts" xlink:title="index.ts">
<path fill="#ddfeff" stroke="black" d="M709.08,-54.88C709.08,-54.88 666.92,-54.88 666.92,-54.88 663.96,-54.88 661,-51.92 661,-48.96 661,-48.96 661,-43.04 661,-43.04 661,-40.08 663.96,-37.12 666.92,-37.12 666.92,-37.12 709.08,-37.12 709.08,-37.12 712.04,-37.12 715,-40.08 715,-43.04 715,-43.04 715,-48.96 715,-48.96 715,-51.92 712.04,-54.88 709.08,-54.88"/>
<text text-anchor="start" x="672.25" y="-42.33" font-family="Helvetica,sans-Serif" font-size="9.00">index.ts</text>
</a>
</g>
</g>
<!-- src/components/index.ts&#45;&gt;src/components/OperandButton/index.ts -->
<g id="edge12" class="edge">
<title>src/components/index.ts&#45;&gt;src/components/OperandButton/index.ts</title>
<path fill="none" stroke="#000000" stroke-width="2" stroke-opacity="0.200000" d="M207.29,-33.15C209.88,-32.7 212.49,-32.31 215,-32 293.04,-22.49 313.13,-25 391.75,-25 391.75,-25 391.75,-25 506.12,-25 567.9,-25 584.37,-19.14 645,-31 648.68,-31.72 652.46,-32.7 656.19,-33.82"/>
<polygon fill="#000000" fill-opacity="0.200000" stroke="#000000" stroke-width="2" stroke-opacity="0.200000" points="655.45,-35.79 661.81,-35.68 656.77,-31.8 655.45,-35.79"/>
</g>
<!-- src/components/Counter/index.ts -->
<g id="node6" class="node">
<title>src/components/Counter/index.ts</title>
<g id="a_node6"><a xlink:href="src/components/Counter/index.ts" xlink:title="index.ts">
<path fill="#ddfeff" stroke="black" d="M526.21,-89.88C526.21,-89.88 484.04,-89.88 484.04,-89.88 481.08,-89.88 478.12,-86.92 478.12,-83.96 478.12,-83.96 478.12,-78.04 478.12,-78.04 478.12,-75.08 481.08,-72.12 484.04,-72.12 484.04,-72.12 526.21,-72.12 526.21,-72.12 529.17,-72.12 532.12,-75.08 532.12,-78.04 532.12,-78.04 532.12,-83.96 532.12,-83.96 532.12,-86.92 529.17,-89.88 526.21,-89.88"/>
<text text-anchor="start" x="489.38" y="-77.33" font-family="Helvetica,sans-Serif" font-size="9.00">index.ts</text>
</a>
</g>
</g>
<!-- src/components/index.ts&#45;&gt;src/components/Counter/index.ts -->
<g id="edge10" class="edge">
<title>src/components/index.ts&#45;&gt;src/components/Counter/index.ts</title>
<path fill="none" stroke="#000000" stroke-width="2" stroke-opacity="0.200000" d="M207.18,-37.97C269.77,-35.73 424.32,-31.64 443.25,-45 451.41,-50.76 443.89,-59.25 451.25,-66 456.35,-70.67 462.79,-73.9 469.41,-76.12"/>
<polygon fill="#000000" fill-opacity="0.200000" stroke="#000000" stroke-width="2" stroke-opacity="0.200000" points="468.55,-78.06 474.89,-77.64 469.67,-74.01 468.55,-78.06"/>
</g>
<!-- src/components/LocalCounter/index.ts -->
<g id="node10" class="node">
<title>src/components/LocalCounter/index.ts</title>
<g id="a_node10"><a xlink:href="src/components/LocalCounter/index.ts" xlink:title="index.ts">
<path fill="#ddfeff" stroke="black" d="M301.21,-103.88C301.21,-103.88 259.04,-103.88 259.04,-103.88 256.08,-103.88 253.12,-100.92 253.12,-97.96 253.12,-97.96 253.12,-92.04 253.12,-92.04 253.12,-89.08 256.08,-86.12 259.04,-86.12 259.04,-86.12 301.21,-86.12 301.21,-86.12 304.17,-86.12 307.12,-89.08 307.12,-92.04 307.12,-92.04 307.12,-97.96 307.12,-97.96 307.12,-100.92 304.17,-103.88 301.21,-103.88"/>
<text text-anchor="start" x="264.38" y="-91.33" font-family="Helvetica,sans-Serif" font-size="9.00">index.ts</text>
</a>
</g>
</g>
<!-- src/components/index.ts&#45;&gt;src/components/LocalCounter/index.ts -->
<g id="edge11" class="edge">
<title>src/components/index.ts&#45;&gt;src/components/LocalCounter/index.ts</title>
<path fill="none" stroke="#000000" stroke-width="2" stroke-opacity="0.200000" d="M186.23,-48.34C192.03,-57.79 202.26,-72.12 215,-80 223.63,-85.34 234,-88.78 243.85,-91"/>
<polygon fill="#000000" fill-opacity="0.200000" stroke="#000000" stroke-width="2" stroke-opacity="0.200000" points="243.42,-93.06 249.71,-92.13 244.22,-88.93 243.42,-93.06"/>
</g>
<!-- src/components/Counter/Counter.stories.tsx -->
<g id="node3" class="node">
<title>src/components/Counter/Counter.stories.tsx</title>
<g id="a_node3"><a xlink:href="src/components/Counter/Counter.stories.tsx" xlink:title="Counter.stories.tsx">
<path fill="#bbfeff" stroke="black" d="M545.08,-59.88C545.08,-59.88 465.17,-59.88 465.17,-59.88 462.21,-59.88 459.25,-56.92 459.25,-53.96 459.25,-53.96 459.25,-48.04 459.25,-48.04 459.25,-45.08 462.21,-42.12 465.17,-42.12 465.17,-42.12 545.08,-42.12 545.08,-42.12 548.04,-42.12 551,-45.08 551,-48.04 551,-48.04 551,-53.96 551,-53.96 551,-56.92 548.04,-59.88 545.08,-59.88"/>
<text text-anchor="start" x="467.25" y="-47.33" font-family="Helvetica,sans-Serif" font-size="9.00">Counter.stories.tsx</text>
</a>
</g>
</g>
<!-- src/components/Counter/Counter.tsx -->
<g id="node4" class="node">
<title>src/components/Counter/Counter.tsx</title>
<g id="a_node4"><a xlink:href="src/components/Counter/Counter.tsx" xlink:title="Counter.tsx">
<path fill="#bbfeff" stroke="black" d="M625.83,-59.88C625.83,-59.88 575.17,-59.88 575.17,-59.88 572.21,-59.88 569.25,-56.92 569.25,-53.96 569.25,-53.96 569.25,-48.04 569.25,-48.04 569.25,-45.08 572.21,-42.12 575.17,-42.12 575.17,-42.12 625.83,-42.12 625.83,-42.12 628.79,-42.12 631.75,-45.08 631.75,-48.04 631.75,-48.04 631.75,-53.96 631.75,-53.96 631.75,-56.92 628.79,-59.88 625.83,-59.88"/>
<text text-anchor="start" x="577.25" y="-47.33" font-family="Helvetica,sans-Serif" font-size="9.00">Counter.tsx</text>
</a>
</g>
</g>
<!-- src/components/Counter/Counter.stories.tsx&#45;&gt;src/components/Counter/Counter.tsx -->
<g id="edge2" class="edge">
<title>src/components/Counter/Counter.stories.tsx&#45;&gt;src/components/Counter/Counter.tsx</title>
<path fill="none" stroke="#000000" stroke-width="2" stroke-opacity="0.200000" d="M551.44,-51C554.33,-51 557.21,-51 560.06,-51"/>
<polygon fill="#000000" fill-opacity="0.200000" stroke="#000000" stroke-width="2" stroke-opacity="0.200000" points="559.96,-53.1 565.96,-51 559.96,-48.9 559.96,-53.1"/>
</g>
<!-- src/components/Counter/Counter.tsx&#45;&gt;src/components/OperandButton/index.ts -->
<g id="edge3" class="edge">
<title>src/components/Counter/Counter.tsx&#45;&gt;src/components/OperandButton/index.ts</title>
<path fill="none" stroke="#000000" stroke-width="2" stroke-opacity="0.200000" d="M631.88,-49.22C638.35,-48.84 645.23,-48.44 651.86,-48.05"/>
<polygon fill="#000000" fill-opacity="0.200000" stroke="#000000" stroke-width="2" stroke-opacity="0.200000" points="651.79,-50.16 657.66,-47.72 651.55,-45.97 651.79,-50.16"/>
</g>
<!-- src/components/OperandButton/OperandButton.tsx -->
<g id="node11" class="node">
<title>src/components/OperandButton/OperandButton.tsx</title>
<g id="a_node11"><a xlink:href="src/components/OperandButton/OperandButton.tsx" xlink:title="OperandButton.tsx">
<path fill="#bbfeff" stroke="black" d="M813.83,-54.88C813.83,-54.88 733.92,-54.88 733.92,-54.88 730.96,-54.88 728,-51.92 728,-48.96 728,-48.96 728,-43.04 728,-43.04 728,-40.08 730.96,-37.12 733.92,-37.12 733.92,-37.12 813.83,-37.12 813.83,-37.12 816.79,-37.12 819.75,-40.08 819.75,-43.04 819.75,-43.04 819.75,-48.96 819.75,-48.96 819.75,-51.92 816.79,-54.88 813.83,-54.88"/>
<text text-anchor="start" x="736" y="-42.33" font-family="Helvetica,sans-Serif" font-size="9.00">OperandButton.tsx</text>
</a>
</g>
</g>
<!-- src/components/OperandButton/index.ts&#45;&gt;src/components/OperandButton/OperandButton.tsx -->
<g id="edge9" class="edge">
<title>src/components/OperandButton/index.ts&#45;&gt;src/components/OperandButton/OperandButton.tsx</title>
<path fill="none" stroke="#000000" stroke-width="2" stroke-opacity="0.200000" d="M715.08,-46C716.34,-46 717.63,-46 718.93,-46"/>
<polygon fill="#000000" fill-opacity="0.200000" stroke="#000000" stroke-width="2" stroke-opacity="0.200000" points="718.68,-48.1 724.68,-46 718.68,-43.9 718.68,-48.1"/>
</g>
<!-- src/components/Counter/index.ts&#45;&gt;src/components/Counter/Counter.tsx -->
<g id="edge4" class="edge">
<title>src/components/Counter/index.ts&#45;&gt;src/components/Counter/Counter.tsx</title>
<path fill="none" stroke="#000000" stroke-width="2" stroke-opacity="0.200000" d="M532.14,-72.64C541.32,-69.69 551.84,-66.31 561.79,-63.12"/>
<polygon fill="#000000" fill-opacity="0.200000" stroke="#000000" stroke-width="2" stroke-opacity="0.200000" points="562.39,-65.13 567.46,-61.29 561.11,-61.13 562.39,-65.13"/>
</g>
<!-- src/components/Counter/useCounter.ts -->
<g id="node7" class="node">
<title>src/components/Counter/useCounter.ts</title>
<g id="a_node7"><a xlink:href="src/components/Counter/useCounter.ts" xlink:title="useCounter.ts">
<path fill="#ddfeff" stroke="black" d="M631.08,-89.88C631.08,-89.88 569.92,-89.88 569.92,-89.88 566.96,-89.88 564,-86.92 564,-83.96 564,-83.96 564,-78.04 564,-78.04 564,-75.08 566.96,-72.12 569.92,-72.12 569.92,-72.12 631.08,-72.12 631.08,-72.12 634.04,-72.12 637,-75.08 637,-78.04 637,-78.04 637,-83.96 637,-83.96 637,-86.92 634.04,-89.88 631.08,-89.88"/>
<text text-anchor="start" x="572" y="-77.33" font-family="Helvetica,sans-Serif" font-size="9.00">useCounter.ts</text>
</a>
</g>
</g>
<!-- src/components/Counter/index.ts&#45;&gt;src/components/Counter/useCounter.ts -->
<g id="edge5" class="edge">
<title>src/components/Counter/index.ts&#45;&gt;src/components/Counter/useCounter.ts</title>
<path fill="none" stroke="#000000" stroke-width="2" stroke-opacity="0.200000" d="M532.14,-81C539.12,-81 546.87,-81 554.56,-81"/>
<polygon fill="#000000" fill-opacity="0.200000" stroke="#000000" stroke-width="2" stroke-opacity="0.200000" points="554.48,-83.1 560.48,-81 554.48,-78.9 554.48,-83.1"/>
</g>
<!-- src/components/LocalCounter/LocalCounter.stories.tsx -->
<g id="node8" class="node">
<title>src/components/LocalCounter/LocalCounter.stories.tsx</title>
<g id="a_node8"><a xlink:href="src/components/LocalCounter/LocalCounter.stories.tsx" xlink:title="LocalCounter.stories.tsx">
<path fill="#bbfeff" stroke="black" d="M331.33,-73.88C331.33,-73.88 228.92,-73.88 228.92,-73.88 225.96,-73.88 223,-70.92 223,-67.96 223,-67.96 223,-62.04 223,-62.04 223,-59.08 225.96,-56.12 228.92,-56.12 228.92,-56.12 331.33,-56.12 331.33,-56.12 334.29,-56.12 337.25,-59.08 337.25,-62.04 337.25,-62.04 337.25,-67.96 337.25,-67.96 337.25,-70.92 334.29,-73.88 331.33,-73.88"/>
<text text-anchor="start" x="231" y="-61.33" font-family="Helvetica,sans-Serif" font-size="9.00">LocalCounter.stories.tsx</text>
</a>
</g>
</g>
<!-- src/components/LocalCounter/LocalCounter.tsx -->
<g id="node9" class="node">
<title>src/components/LocalCounter/LocalCounter.tsx</title>
<g id="a_node9"><a xlink:href="src/components/LocalCounter/LocalCounter.tsx" xlink:title="LocalCounter.tsx">
<path fill="#bbfeff" stroke="black" d="M429.33,-89.88C429.33,-89.88 356.17,-89.88 356.17,-89.88 353.21,-89.88 350.25,-86.92 350.25,-83.96 350.25,-83.96 350.25,-78.04 350.25,-78.04 350.25,-75.08 353.21,-72.12 356.17,-72.12 356.17,-72.12 429.33,-72.12 429.33,-72.12 432.29,-72.12 435.25,-75.08 435.25,-78.04 435.25,-78.04 435.25,-83.96 435.25,-83.96 435.25,-86.92 432.29,-89.88 429.33,-89.88"/>
<text text-anchor="start" x="358.25" y="-77.33" font-family="Helvetica,sans-Serif" font-size="9.00">LocalCounter.tsx</text>
</a>
</g>
</g>
<!-- src/components/LocalCounter/LocalCounter.stories.tsx&#45;&gt;src/components/LocalCounter/LocalCounter.tsx -->
<g id="edge6" class="edge">
<title>src/components/LocalCounter/LocalCounter.stories.tsx&#45;&gt;src/components/LocalCounter/LocalCounter.tsx</title>
<path fill="none" stroke="#000000" stroke-width="2" stroke-opacity="0.200000" d="M337.73,-73.19C338.9,-73.36 340.07,-73.52 341.23,-73.69"/>
<polygon fill="#000000" fill-opacity="0.200000" stroke="#000000" stroke-width="2" stroke-opacity="0.200000" points="340.82,-75.76 347.05,-74.54 341.42,-71.6 340.82,-75.76"/>
</g>
<!-- src/components/LocalCounter/LocalCounter.tsx&#45;&gt;src/components/Counter/index.ts -->
<g id="edge7" class="edge">
<title>src/components/LocalCounter/LocalCounter.tsx&#45;&gt;src/components/Counter/index.ts</title>
<path fill="none" stroke="#000000" stroke-width="2" stroke-opacity="0.200000" d="M435.48,-81C446.43,-81 458.14,-81 468.73,-81"/>
<polygon fill="#000000" fill-opacity="0.200000" stroke="#000000" stroke-width="2" stroke-opacity="0.200000" points="468.67,-83.1 474.67,-81 468.67,-78.9 468.67,-83.1"/>
</g>
<!-- src/components/LocalCounter/index.ts&#45;&gt;src/components/LocalCounter/LocalCounter.tsx -->
<g id="edge8" class="edge">
<title>src/components/LocalCounter/index.ts&#45;&gt;src/components/LocalCounter/LocalCounter.tsx</title>
<path fill="none" stroke="#000000" stroke-width="2" stroke-opacity="0.200000" d="M307.62,-91.65C317.71,-90.37 329.57,-88.87 341.15,-87.4"/>
<polygon fill="#000000" fill-opacity="0.200000" stroke="#000000" stroke-width="2" stroke-opacity="0.200000" points="341.22,-89.51 346.91,-86.67 340.7,-85.34 341.22,-89.51"/>
</g>
<!-- src/main.tsx -->
<g id="node12" class="node">
<title>src/main.tsx</title>
<g id="a_node12"><a xlink:href="src/main.tsx" xlink:title="main.tsx">
<path fill="#bbfeff" stroke="black" d="M64.08,-47.88C64.08,-47.88 21.92,-47.88 21.92,-47.88 18.96,-47.88 16,-44.92 16,-41.96 16,-41.96 16,-36.04 16,-36.04 16,-33.08 18.96,-30.12 21.92,-30.12 21.92,-30.12 64.08,-30.12 64.08,-30.12 67.04,-30.12 70,-33.08 70,-36.04 70,-36.04 70,-41.96 70,-41.96 70,-44.92 67.04,-47.88 64.08,-47.88"/>
<text text-anchor="start" x="26.12" y="-35.33" font-family="Helvetica,sans-Serif" font-size="9.00">main.tsx</text>
</a>
</g>
</g>
<!-- src/main.tsx&#45;&gt;src/App.tsx -->
<g id="edge13" class="edge">
<title>src/main.tsx&#45;&gt;src/App.tsx</title>
<path fill="none" stroke="#000000" stroke-width="2" stroke-opacity="0.200000" d="M70.44,-39C71.58,-39 72.74,-39 73.9,-39"/>
<polygon fill="#000000" fill-opacity="0.200000" stroke="#000000" stroke-width="2" stroke-opacity="0.200000" points="73.77,-41.1 79.77,-39 73.77,-36.9 73.77,-41.1"/>
</g>
</g>
</svg>
