<?xml version="1.0" encoding="UTF-8" standalone="no"?>
<!DOCTYPE svg PUBLIC "-//W3C//DTD SVG 1.1//EN"
 "http://www.w3.org/Graphics/SVG/1.1/DTD/svg11.dtd">
<!-- Generated by graphviz version 10.0.1 (20240210.2158)
 -->
<!-- Title: dependency&#45;cruiser output Pages: 1 -->
<svg width="535pt" height="324pt"
 viewBox="0.00 0.00 534.50 324.00" xmlns="http://www.w3.org/2000/svg" xmlns:xlink="http://www.w3.org/1999/xlink">
<g id="graph0" class="graph" transform="scale(1 1) rotate(0) translate(4 320)">
<title>dependency&#45;cruiser output</title>
<polygon fill="white" stroke="none" points="-4,4 -4,-320 530.5,-320 530.5,4 -4,4"/>
<g id="clust1" class="cluster">
<title>cluster_src</title>
<path fill="#ffffff" stroke="black" stroke-width="2" d="M20,-8C20,-8 506.5,-8 506.5,-8 512.5,-8 518.5,-14 518.5,-20 518.5,-20 518.5,-296 518.5,-296 518.5,-302 512.5,-308 506.5,-308 506.5,-308 20,-308 20,-308 14,-308 8,-302 8,-296 8,-296 8,-20 8,-20 8,-14 14,-8 20,-8"/>
<text text-anchor="middle" x="263.25" y="-295.45" font-family="Helvetica,sans-Serif" font-weight="bold" font-size="9.00">src</text>
</g>
<g id="clust2" class="cluster">
<title>cluster_src/components</title>
<path fill="#ffffff" stroke="black" stroke-width="2" d="M157,-16C157,-16 498.5,-16 498.5,-16 504.5,-16 510.5,-22 510.5,-28 510.5,-28 510.5,-270 510.5,-270 510.5,-276 504.5,-282 498.5,-282 498.5,-282 157,-282 157,-282 151,-282 145,-276 145,-270 145,-270 145,-28 145,-28 145,-22 151,-16 157,-16"/>
<text text-anchor="middle" x="327.75" y="-269.45" font-family="Helvetica,sans-Serif" font-weight="bold" font-size="9.00">components</text>
</g>
<g id="clust3" class="cluster">
<title>cluster_src/components/Counter</title>
<path fill="#ffffff" stroke="black" stroke-width="2" d="M290.75,-24C290.75,-24 481.12,-24 481.12,-24 487.12,-24 493.12,-30 493.12,-36 493.12,-36 493.12,-94 493.12,-94 493.12,-100 487.12,-106 481.12,-106 481.12,-106 290.75,-106 290.75,-106 284.75,-106 278.75,-100 278.75,-94 278.75,-94 278.75,-36 278.75,-36 278.75,-30 284.75,-24 290.75,-24"/>
<text text-anchor="middle" x="385.94" y="-93.45" font-family="Helvetica,sans-Serif" font-weight="bold" font-size="9.00">Counter</text>
</g>
<g id="clust4" class="cluster">
<title>cluster_src/components/LocalCounter</title>
<path fill="#ffffff" stroke="black" stroke-width="2" d="M165,-174C165,-174 487.12,-174 487.12,-174 493.12,-174 499.12,-180 499.12,-186 499.12,-186 499.12,-244 499.12,-244 499.12,-250 493.12,-256 487.12,-256 487.12,-256 165,-256 165,-256 159,-256 153,-250 153,-244 153,-244 153,-186 153,-186 153,-180 159,-174 165,-174"/>
<text text-anchor="middle" x="326.06" y="-243.45" font-family="Helvetica,sans-Serif" font-weight="bold" font-size="9.00">LocalCounter</text>
</g>
<g id="clust5" class="cluster">
<title>cluster_src/components/OperandButton</title>
<path fill="#ffffff" stroke="black" stroke-width="2" d="M309.62,-114C309.62,-114 490.5,-114 490.5,-114 496.5,-114 502.5,-120 502.5,-126 502.5,-126 502.5,-154 502.5,-154 502.5,-160 496.5,-166 490.5,-166 490.5,-166 309.62,-166 309.62,-166 303.62,-166 297.62,-160 297.62,-154 297.62,-154 297.62,-126 297.62,-126 297.62,-120 303.62,-114 309.62,-114"/>
<text text-anchor="middle" x="400.06" y="-153.45" font-family="Helvetica,sans-Serif" font-weight="bold" font-size="9.00">OperandButton</text>
</g>
<!-- src/App.tsx -->
<g id="node1" class="node">
<title>src/App.tsx</title>
<g id="a_node1"><a xlink:href="src/App.tsx" xlink:title="App.tsx">
<path fill="#bbfeff" stroke="black" d="M131.08,-139.88C131.08,-139.88 88.92,-139.88 88.92,-139.88 85.96,-139.88 83,-136.92 83,-133.96 83,-133.96 83,-128.04 83,-128.04 83,-125.08 85.96,-122.12 88.92,-122.12 88.92,-122.12 131.08,-122.12 131.08,-122.12 134.04,-122.12 137,-125.08 137,-128.04 137,-128.04 137,-133.96 137,-133.96 137,-136.92 134.04,-139.88 131.08,-139.88"/>
<text text-anchor="start" x="95" y="-127.33" font-family="Helvetica,sans-Serif" font-size="9.00">App.tsx</text>
</a>
</g>
</g>
<!-- src/components/index.ts -->
<g id="node2" class="node">
<title>src/components/index.ts</title>
<g id="a_node2"><a xlink:href="src/components/index.ts" xlink:title="index.ts">
<path fill="#ddfeff" stroke="black" d="M232.83,-139.88C232.83,-139.88 190.67,-139.88 190.67,-139.88 187.71,-139.88 184.75,-136.92 184.75,-133.96 184.75,-133.96 184.75,-128.04 184.75,-128.04 184.75,-125.08 187.71,-122.12 190.67,-122.12 190.67,-122.12 232.83,-122.12 232.83,-122.12 235.79,-122.12 238.75,-125.08 238.75,-128.04 238.75,-128.04 238.75,-133.96 238.75,-133.96 238.75,-136.92 235.79,-139.88 232.83,-139.88"/>
<text text-anchor="start" x="196" y="-127.33" font-family="Helvetica,sans-Serif" font-size="9.00">index.ts</text>
</a>
</g>
</g>
<!-- src/App.tsx&#45;&gt;src/components/index.ts -->
<g id="edge1" class="edge">
<title>src/App.tsx&#45;&gt;src/components/index.ts</title>
<path fill="none" stroke="#000000" stroke-width="2" stroke-opacity="0.200000" d="M137.47,-131C149.17,-131 163.1,-131 175.66,-131"/>
<polygon fill="#000000" fill-opacity="0.200000" stroke="#000000" stroke-width="2" stroke-opacity="0.200000" points="175.48,-133.1 181.48,-131 175.48,-128.9 175.48,-133.1"/>
</g>
<!-- src/components/OperandButton/index.ts -->
<g id="node5" class="node">
<title>src/components/OperandButton/index.ts</title>
<g id="a_node5"><a xlink:href="src/components/OperandButton/index.ts" xlink:title="index.ts">
<path fill="#ddfeff" stroke="black" d="M353.71,-139.88C353.71,-139.88 311.54,-139.88 311.54,-139.88 308.58,-139.88 305.62,-136.92 305.62,-133.96 305.62,-133.96 305.62,-128.04 305.62,-128.04 305.62,-125.08 308.58,-122.12 311.54,-122.12 311.54,-122.12 353.71,-122.12 353.71,-122.12 356.67,-122.12 359.62,-125.08 359.62,-128.04 359.62,-128.04 359.62,-133.96 359.62,-133.96 359.62,-136.92 356.67,-139.88 353.71,-139.88"/>
<text text-anchor="start" x="316.88" y="-127.33" font-family="Helvetica,sans-Serif" font-size="9.00">index.ts</text>
</a>
</g>
</g>
<!-- src/components/index.ts&#45;&gt;src/components/OperandButton/index.ts -->
<g id="edge14" class="edge">
<title>src/components/index.ts&#45;&gt;src/components/OperandButton/index.ts</title>
<path fill="none" stroke="#000000" stroke-width="2" stroke-opacity="0.200000" d="M239.13,-131C255.98,-131 278.04,-131 296.38,-131"/>
<polygon fill="#000000" fill-opacity="0.200000" stroke="#000000" stroke-width="2" stroke-opacity="0.200000" points="296.29,-133.1 302.29,-131 296.29,-128.9 296.29,-133.1"/>
</g>
<!-- src/components/Counter/index.ts -->
<g id="node6" class="node">
<title>src/components/Counter/index.ts</title>
<g id="a_node6"><a xlink:href="src/components/Counter/index.ts" xlink:title="index.ts">
<path fill="#ddfeff" stroke="black" d="M353.71,-79.88C353.71,-79.88 311.54,-79.88 311.54,-79.88 308.58,-79.88 305.62,-76.92 305.62,-73.96 305.62,-73.96 305.62,-68.04 305.62,-68.04 305.62,-65.08 308.58,-62.12 311.54,-62.12 311.54,-62.12 353.71,-62.12 353.71,-62.12 356.67,-62.12 359.62,-65.08 359.62,-68.04 359.62,-68.04 359.62,-73.96 359.62,-73.96 359.62,-76.92 356.67,-79.88 353.71,-79.88"/>
<text text-anchor="start" x="316.88" y="-67.33" font-family="Helvetica,sans-Serif" font-size="9.00">index.ts</text>
</a>
</g>
</g>
<!-- src/components/index.ts&#45;&gt;src/components/Counter/index.ts -->
<g id="edge12" class="edge">
<title>src/components/index.ts&#45;&gt;src/components/Counter/index.ts</title>
<path fill="none" stroke="#000000" stroke-width="2" stroke-opacity="0.200000" d="M231.32,-121.62C251.21,-111.59 282.94,-95.57 305.37,-84.25"/>
<polygon fill="#000000" fill-opacity="0.200000" stroke="#000000" stroke-width="2" stroke-opacity="0.200000" points="306.07,-86.25 310.48,-81.67 304.18,-82.5 306.07,-86.25"/>
</g>
<!-- src/components/LocalCounter/index.ts -->
<g id="node11" class="node">
<title>src/components/LocalCounter/index.ts</title>
<g id="a_node11"><a xlink:href="src/components/LocalCounter/index.ts" xlink:title="index.ts">
<path fill="#ddfeff" stroke="black" d="M353.71,-199.88C353.71,-199.88 311.54,-199.88 311.54,-199.88 308.58,-199.88 305.62,-196.92 305.62,-193.96 305.62,-193.96 305.62,-188.04 305.62,-188.04 305.62,-185.08 308.58,-182.12 311.54,-182.12 311.54,-182.12 353.71,-182.12 353.71,-182.12 356.67,-182.12 359.62,-185.08 359.62,-188.04 359.62,-188.04 359.62,-193.96 359.62,-193.96 359.62,-196.92 356.67,-199.88 353.71,-199.88"/>
<text text-anchor="start" x="316.88" y="-187.32" font-family="Helvetica,sans-Serif" font-size="9.00">index.ts</text>
</a>
</g>
</g>
<!-- src/components/index.ts&#45;&gt;src/components/LocalCounter/index.ts -->
<g id="edge13" class="edge">
<title>src/components/index.ts&#45;&gt;src/components/LocalCounter/index.ts</title>
<path fill="none" stroke="#000000" stroke-width="2" stroke-opacity="0.200000" d="M226.32,-140.15C238.78,-148.32 257.92,-160.31 275.5,-169 282.31,-172.37 289.77,-175.59 296.97,-178.49"/>
<polygon fill="#000000" fill-opacity="0.200000" stroke="#000000" stroke-width="2" stroke-opacity="0.200000" points="296.06,-180.39 302.42,-180.62 297.59,-176.48 296.06,-180.39"/>
</g>
<!-- src/components/Counter/Counter.stories.tsx -->
<g id="node3" class="node">
<title>src/components/Counter/Counter.stories.tsx</title>
<g id="a_node3"><a xlink:href="src/components/Counter/Counter.stories.tsx" xlink:title="Counter.stories.tsx">
<path fill="#bbfeff" stroke="black" d="M372.58,-49.88C372.58,-49.88 292.67,-49.88 292.67,-49.88 289.71,-49.88 286.75,-46.92 286.75,-43.96 286.75,-43.96 286.75,-38.04 286.75,-38.04 286.75,-35.08 289.71,-32.12 292.67,-32.12 292.67,-32.12 372.58,-32.12 372.58,-32.12 375.54,-32.12 378.5,-35.08 378.5,-38.04 378.5,-38.04 378.5,-43.96 378.5,-43.96 378.5,-46.92 375.54,-49.88 372.58,-49.88"/>
<text text-anchor="start" x="294.75" y="-37.33" font-family="Helvetica,sans-Serif" font-size="9.00">Counter.stories.tsx</text>
</a>
</g>
</g>
<!-- src/components/Counter/Counter.tsx -->
<g id="node4" class="node">
<title>src/components/Counter/Counter.tsx</title>
<g id="a_node4"><a xlink:href="src/components/Counter/Counter.tsx" xlink:title="Counter.tsx">
<path fill="#bbfeff" stroke="black" d="M473.96,-79.88C473.96,-79.88 423.29,-79.88 423.29,-79.88 420.33,-79.88 417.38,-76.92 417.38,-73.96 417.38,-73.96 417.38,-68.04 417.38,-68.04 417.38,-65.08 420.33,-62.12 423.29,-62.12 423.29,-62.12 473.96,-62.12 473.96,-62.12 476.92,-62.12 479.88,-65.08 479.88,-68.04 479.88,-68.04 479.88,-73.96 479.88,-73.96 479.88,-76.92 476.92,-79.88 473.96,-79.88"/>
<text text-anchor="start" x="425.38" y="-67.33" font-family="Helvetica,sans-Serif" font-size="9.00">Counter.tsx</text>
</a>
</g>
</g>
<!-- src/components/Counter/Counter.stories.tsx&#45;&gt;src/components/Counter/Counter.tsx -->
<g id="edge2" class="edge">
<title>src/components/Counter/Counter.stories.tsx&#45;&gt;src/components/Counter/Counter.tsx</title>
<path fill="none" stroke="#000000" stroke-width="2" stroke-opacity="0.200000" d="M369.07,-50.33C381.6,-53.63 395.77,-57.35 408.58,-60.73"/>
<polygon fill="#000000" fill-opacity="0.200000" stroke="#000000" stroke-width="2" stroke-opacity="0.200000" points="407.94,-62.73 414.27,-62.22 409.01,-58.67 407.94,-62.73"/>
</g>
<!-- src/components/Counter/Counter.tsx&#45;&gt;src/components/OperandButton/index.ts -->
<g id="edge3" class="edge">
<title>src/components/Counter/Counter.tsx&#45;&gt;src/components/OperandButton/index.ts</title>
<g id="a_edge3"><a xlink:title="no&#45;circular">
<path fill="none" stroke="orange" stroke-width="2" d="M435.21,-80.24C423.8,-88.47 406.19,-100.5 389.75,-109 385.79,-111.05 381.59,-113.02 377.35,-114.9"/>
<polygon fill="orange" stroke="orange" stroke-width="2" points="367.68,-116.56 362.91,-120.77 369.26,-120.45 367.68,-116.56"/>
<polyline fill="none" stroke="orange" stroke-width="2" points="369.4,-118.13 372.17,-117"/>
<ellipse fill="none" stroke="orange" stroke-width="2" cx="375.32" cy="-115.72" rx="2.4" ry="2.4"/>
</a>
</g>
<text text-anchor="middle" x="377.71" y="-104.87" font-family="Helvetica,sans-Serif" font-size="9.00" fill="orange">no&#45;circular</text>
</g>
<!-- src/components/OperandButton/OperandButton.tsx -->
<g id="node12" class="node">
<title>src/components/OperandButton/OperandButton.tsx</title>
<g id="a_node12"><a xlink:href="src/components/OperandButton/OperandButton.tsx" xlink:title="OperandButton.tsx">
<path fill="#bbfeff" stroke="black" d="M488.58,-139.88C488.58,-139.88 408.67,-139.88 408.67,-139.88 405.71,-139.88 402.75,-136.92 402.75,-133.96 402.75,-133.96 402.75,-128.04 402.75,-128.04 402.75,-125.08 405.71,-122.12 408.67,-122.12 408.67,-122.12 488.58,-122.12 488.58,-122.12 491.54,-122.12 494.5,-125.08 494.5,-128.04 494.5,-128.04 494.5,-133.96 494.5,-133.96 494.5,-136.92 491.54,-139.88 488.58,-139.88"/>
<text text-anchor="start" x="410.75" y="-127.33" font-family="Helvetica,sans-Serif" font-size="9.00">OperandButton.tsx</text>
</a>
</g>
</g>
<!-- src/components/OperandButton/index.ts&#45;&gt;src/components/OperandButton/OperandButton.tsx -->
<g id="edge11" class="edge">
<title>src/components/OperandButton/index.ts&#45;&gt;src/components/OperandButton/OperandButton.tsx</title>
<g id="a_edge11"><a xlink:title="no&#45;circular">
<path fill="none" stroke="orange" stroke-width="2" d="M360.07,-131C367.37,-131 375.62,-131 384.06,-131"/>
<polygon fill="orange" stroke="orange" stroke-width="2" points="393.54,-133.1 399.54,-131 393.54,-128.9 393.54,-133.1"/>
<polyline fill="none" stroke="orange" stroke-width="2" points="392.54,-131 389.54,-131"/>
<ellipse fill="none" stroke="orange" stroke-width="2" cx="386.14" cy="-131" rx="2.4" ry="2.4"/>
</a>
</g>
<text text-anchor="middle" x="359.55" y="-132.2" font-family="Helvetica,sans-Serif" font-size="9.00" fill="orange">no&#45;circular</text>
</g>
<!-- src/components/Counter/index.ts&#45;&gt;src/components/Counter/Counter.tsx -->
<g id="edge4" class="edge">
<title>src/components/Counter/index.ts&#45;&gt;src/components/Counter/Counter.tsx</title>
<g id="a_edge4"><a xlink:title="no&#45;circular">
<path fill="none" stroke="orange" stroke-width="2" d="M360.07,-71C371.47,-71 385.18,-71 398.34,-71"/>
<polygon fill="orange" stroke="orange" stroke-width="2" points="407.86,-73.1 413.86,-71 407.86,-68.9 407.86,-73.1"/>
<polyline fill="none" stroke="orange" stroke-width="2" points="406.86,-71 403.86,-71"/>
<ellipse fill="none" stroke="orange" stroke-width="2" cx="400.46" cy="-71" rx="2.4" ry="2.4"/>
</a>
</g>
<text text-anchor="middle" x="366.98" y="-72.2" font-family="Helvetica,sans-Serif" font-size="9.00" fill="orange">no&#45;circular</text>
</g>
<!-- src/components/Counter/useCounter.ts -->
<g id="node7" class="node">
<title>src/components/Counter/useCounter.ts</title>
<g id="a_node7"><a xlink:href="src/components/Counter/useCounter.ts" xlink:title="useCounter.ts">
<path fill="#ddfeff" stroke="black" d="M479.21,-49.88C479.21,-49.88 418.04,-49.88 418.04,-49.88 415.08,-49.88 412.12,-46.92 412.12,-43.96 412.12,-43.96 412.12,-38.04 412.12,-38.04 412.12,-35.08 415.08,-32.12 418.04,-32.12 418.04,-32.12 479.21,-32.12 479.21,-32.12 482.17,-32.12 485.12,-35.08 485.12,-38.04 485.12,-38.04 485.12,-43.96 485.12,-43.96 485.12,-46.92 482.17,-49.88 479.21,-49.88"/>
<text text-anchor="start" x="420.12" y="-37.33" font-family="Helvetica,sans-Serif" font-size="9.00">useCounter.ts</text>
</a>
</g>
</g>
<!-- src/components/Counter/index.ts&#45;&gt;src/components/Counter/useCounter.ts -->
<g id="edge5" class="edge">
<title>src/components/Counter/index.ts&#45;&gt;src/components/Counter/useCounter.ts</title>
<path fill="none" stroke="#000000" stroke-width="2" stroke-opacity="0.200000" d="M360.07,-64.04C373.04,-60.63 389.02,-56.42 403.76,-52.54"/>
<polygon fill="#000000" fill-opacity="0.200000" stroke="#000000" stroke-width="2" stroke-opacity="0.200000" points="404.06,-54.64 409.33,-51.08 402.99,-50.57 404.06,-54.64"/>
</g>
<!-- src/components/LocalCounter/LocalCounter.stories.tsx -->
<g id="node8" class="node">
<title>src/components/LocalCounter/LocalCounter.stories.tsx</title>
<g id="a_node8"><a xlink:href="src/components/LocalCounter/LocalCounter.stories.tsx" xlink:title="LocalCounter.stories.tsx">
<path fill="#bbfeff" stroke="black" d="M383.83,-229.88C383.83,-229.88 281.42,-229.88 281.42,-229.88 278.46,-229.88 275.5,-226.92 275.5,-223.96 275.5,-223.96 275.5,-218.04 275.5,-218.04 275.5,-215.08 278.46,-212.12 281.42,-212.12 281.42,-212.12 383.83,-212.12 383.83,-212.12 386.79,-212.12 389.75,-215.08 389.75,-218.04 389.75,-218.04 389.75,-223.96 389.75,-223.96 389.75,-226.92 386.79,-229.88 383.83,-229.88"/>
<text text-anchor="start" x="283.5" y="-217.32" font-family="Helvetica,sans-Serif" font-size="9.00">LocalCounter.stories.tsx</text>
</a>
</g>
</g>
<!-- src/components/LocalCounter/LocalCounter.tsx -->
<g id="node9" class="node">
<title>src/components/LocalCounter/LocalCounter.tsx</title>
<g id="a_node9"><a xlink:href="src/components/LocalCounter/LocalCounter.tsx" xlink:title="LocalCounter.tsx">
<path fill="#bbfeff" stroke="black" d="M485.21,-199.88C485.21,-199.88 412.04,-199.88 412.04,-199.88 409.08,-199.88 406.12,-196.92 406.12,-193.96 406.12,-193.96 406.12,-188.04 406.12,-188.04 406.12,-185.08 409.08,-182.12 412.04,-182.12 412.04,-182.12 485.21,-182.12 485.21,-182.12 488.17,-182.12 491.12,-185.08 491.12,-188.04 491.12,-188.04 491.12,-193.96 491.12,-193.96 491.12,-196.92 488.17,-199.88 485.21,-199.88"/>
<text text-anchor="start" x="414.12" y="-187.32" font-family="Helvetica,sans-Serif" font-size="9.00">LocalCounter.tsx</text>
</a>
</g>
</g>
<!-- src/components/LocalCounter/LocalCounter.stories.tsx&#45;&gt;src/components/LocalCounter/LocalCounter.tsx -->
<g id="edge6" class="edge">
<title>src/components/LocalCounter/LocalCounter.stories.tsx&#45;&gt;src/components/LocalCounter/LocalCounter.tsx</title>
<path fill="none" stroke="#000000" stroke-width="2" stroke-opacity="0.200000" d="M369.07,-211.67C380.01,-208.79 392.19,-205.59 403.63,-202.58"/>
<polygon fill="#000000" fill-opacity="0.200000" stroke="#000000" stroke-width="2" stroke-opacity="0.200000" points="404.01,-204.65 409.27,-201.09 402.94,-200.59 404.01,-204.65"/>
</g>
<!-- src/components/LocalCounter/LocalCounter.tsx&#45;&gt;src/components/Counter/index.ts -->
<g id="edge8" class="edge">
<title>src/components/LocalCounter/LocalCounter.tsx&#45;&gt;src/components/Counter/index.ts</title>
<g id="a_edge8"><a xlink:title="no&#45;circular">
<path fill="none" stroke="orange" stroke-width="2" d="M419.25,-181.83C413.04,-178.64 407.05,-174.45 402.75,-169 386.39,-148.26 404.36,-133.01 389.75,-111 384.45,-103.01 376.96,-96.1 369.18,-90.38"/>
<polygon fill="orange" stroke="orange" stroke-width="2" points="362.14,-83.42 355.95,-81.97 359.89,-86.96 362.14,-83.42"/>
<polyline fill="none" stroke="orange" stroke-width="2" points="361.86,-85.72 364.39,-87.33"/>
<ellipse fill="none" stroke="orange" stroke-width="2" cx="367.26" cy="-89.16" rx="2.4" ry="2.4"/>
</a>
</g>
<text text-anchor="middle" x="374.22" y="-122.36" font-family="Helvetica,sans-Serif" font-size="9.00" fill="orange">no&#45;circular</text>
</g>
<!-- src/components/LocalCounter/LocalCounter.test.tsx -->
<g id="node10" class="node">
<title>src/components/LocalCounter/LocalCounter.test.tsx</title>
<g id="a_node10"><a xlink:href="src/components/LocalCounter/LocalCounter.test.tsx" xlink:title="LocalCounter.test.tsx">
<path fill="#bbfeff" stroke="black" d="M256.58,-229.88C256.58,-229.88 166.92,-229.88 166.92,-229.88 163.96,-229.88 161,-226.92 161,-223.96 161,-223.96 161,-218.04 161,-218.04 161,-215.08 163.96,-212.12 166.92,-212.12 166.92,-212.12 256.58,-212.12 256.58,-212.12 259.54,-212.12 262.5,-215.08 262.5,-218.04 262.5,-218.04 262.5,-223.96 262.5,-223.96 262.5,-226.92 259.54,-229.88 256.58,-229.88"/>
<text text-anchor="start" x="169" y="-217.32" font-family="Helvetica,sans-Serif" font-size="9.00">LocalCounter.test.tsx</text>
</a>
</g>
</g>
<!-- src/components/LocalCounter/LocalCounter.test.tsx&#45;&gt;src/components/LocalCounter/LocalCounter.stories.tsx -->
<g id="edge7" class="edge">
<title>src/components/LocalCounter/LocalCounter.test.tsx&#45;&gt;src/components/LocalCounter/LocalCounter.stories.tsx</title>
<path fill="none" stroke="#000000" stroke-width="2" stroke-opacity="0.200000" d="M262.82,-221C263.96,-221 265.11,-221 266.26,-221"/>
<polygon fill="#000000" fill-opacity="0.200000" stroke="#000000" stroke-width="2" stroke-opacity="0.200000" points="266.08,-223.1 272.08,-221 266.08,-218.9 266.08,-223.1"/>
</g>
<!-- src/components/LocalCounter/index.ts&#45;&gt;src/components/LocalCounter/LocalCounter.tsx -->
<g id="edge9" class="edge">
<title>src/components/LocalCounter/index.ts&#45;&gt;src/components/LocalCounter/LocalCounter.tsx</title>
<g id="a_edge9"><a xlink:title="no&#45;circular">
<path fill="none" stroke="orange" stroke-width="2" d="M360.07,-191C368.22,-191 377.55,-191 387.02,-191"/>
<polygon fill="orange" stroke="orange" stroke-width="2" points="396.67,-193.1 402.67,-191 396.67,-188.9 396.67,-193.1"/>
<polyline fill="none" stroke="orange" stroke-width="2" points="395.67,-191 392.67,-191"/>
<ellipse fill="none" stroke="orange" stroke-width="2" cx="389.27" cy="-191" rx="2.4" ry="2.4"/>
</a>
</g>
<text text-anchor="middle" x="361.29" y="-192.2" font-family="Helvetica,sans-Serif" font-size="9.00" fill="orange">no&#45;circular</text>
</g>
<!-- src/components/OperandButton/OperandButton.tsx&#45;&gt;src/components/LocalCounter/index.ts -->
<g id="edge10" class="edge">
<title>src/components/OperandButton/OperandButton.tsx&#45;&gt;src/components/LocalCounter/index.ts</title>
<g id="a_edge10"><a xlink:title="no&#45;circular">
<path fill="none" stroke="orange" stroke-width="2" d="M435.21,-140.24C423.8,-148.47 406.19,-160.5 389.75,-169 385.79,-171.05 381.59,-173.02 377.35,-174.9"/>
<polygon fill="orange" stroke="orange" stroke-width="2" points="367.68,-176.56 362.91,-180.77 369.26,-180.45 367.68,-176.56"/>
<polyline fill="none" stroke="orange" stroke-width="2" points="369.4,-178.13 372.17,-177"/>
<ellipse fill="none" stroke="orange" stroke-width="2" cx="375.32" cy="-175.72" rx="2.4" ry="2.4"/>
</a>
</g>
<text text-anchor="middle" x="377.71" y="-164.87" font-family="Helvetica,sans-Serif" font-size="9.00" fill="orange">no&#45;circular</text>
</g>
<!-- src/main.tsx -->
<g id="node13" class="node">
<title>src/main.tsx</title>
<g id="a_node13"><a xlink:href="src/main.tsx" xlink:title="main.tsx">
<path fill="#bbfeff" stroke="black" d="M64.08,-139.88C64.08,-139.88 21.92,-139.88 21.92,-139.88 18.96,-139.88 16,-136.92 16,-133.96 16,-133.96 16,-128.04 16,-128.04 16,-125.08 18.96,-122.12 21.92,-122.12 21.92,-122.12 64.08,-122.12 64.08,-122.12 67.04,-122.12 70,-125.08 70,-128.04 70,-128.04 70,-133.96 70,-133.96 70,-136.92 67.04,-139.88 64.08,-139.88"/>
<text text-anchor="start" x="26.12" y="-127.33" font-family="Helvetica,sans-Serif" font-size="9.00">main.tsx</text>
</a>
</g>
</g>
<!-- src/main.tsx&#45;&gt;src/App.tsx -->
<g id="edge15" class="edge">
<title>src/main.tsx&#45;&gt;src/App.tsx</title>
<path fill="none" stroke="#000000" stroke-width="2" stroke-opacity="0.200000" d="M70.44,-131C71.58,-131 72.74,-131 73.9,-131"/>
<polygon fill="#000000" fill-opacity="0.200000" stroke="#000000" stroke-width="2" stroke-opacity="0.200000" points="73.77,-133.1 79.77,-131 73.77,-128.9 73.77,-133.1"/>
</g>
</g>
</svg>
