<?xml version="1.0" encoding="UTF-8" standalone="no"?>
<!DOCTYPE svg PUBLIC "-//W3C//DTD SVG 1.1//EN"
 "http://www.w3.org/Graphics/SVG/1.1/DTD/svg11.dtd">
<!-- Generated by graphviz version 10.0.1 (20240210.2158)
 -->
<!-- Title: dependency&#45;cruiser output Pages: 1 -->
<svg width="762pt" height="184pt"
 viewBox="0.00 0.00 761.75 184.00" xmlns="http://www.w3.org/2000/svg" xmlns:xlink="http://www.w3.org/1999/xlink">
<g id="graph0" class="graph" transform="scale(1 1) rotate(0) translate(4 180)">
<title>dependency&#45;cruiser output</title>
<polygon fill="white" stroke="none" points="-4,4 -4,-180 757.75,-180 757.75,4 -4,4"/>
<g id="clust1" class="cluster">
<title>cluster_src</title>
<path fill="#ffffff" stroke="black" stroke-width="2" d="M20,-8C20,-8 733.75,-8 733.75,-8 739.75,-8 745.75,-14 745.75,-20 745.75,-20 745.75,-156 745.75,-156 745.75,-162 739.75,-168 733.75,-168 733.75,-168 20,-168 20,-168 14,-168 8,-162 8,-156 8,-156 8,-20 8,-20 8,-14 14,-8 20,-8"/>
<text text-anchor="middle" x="376.88" y="-155.45" font-family="Helvetica,sans-Serif" font-weight="bold" font-size="9.00">src</text>
</g>
<g id="clust2" class="cluster">
<title>cluster_src/components</title>
<path fill="#ffffff" stroke="black" stroke-width="2" d="M157,-16C157,-16 725.75,-16 725.75,-16 731.75,-16 737.75,-22 737.75,-28 737.75,-28 737.75,-130 737.75,-130 737.75,-136 731.75,-142 725.75,-142 725.75,-142 157,-142 157,-142 151,-142 145,-136 145,-130 145,-130 145,-28 145,-28 145,-22 151,-16 157,-16"/>
<text text-anchor="middle" x="441.38" y="-129.45" font-family="Helvetica,sans-Serif" font-weight="bold" font-size="9.00">components</text>
</g>
<g id="clust3" class="cluster">
<title>cluster_src/components/Counter</title>
<path fill="#ffffff" stroke="black" stroke-width="2" d="M403,-34C403,-34 535,-34 535,-34 541,-34 547,-40 547,-46 547,-46 547,-104 547,-104 547,-110 541,-116 535,-116 535,-116 403,-116 403,-116 397,-116 391,-110 391,-104 391,-104 391,-46 391,-46 391,-40 397,-34 403,-34"/>
<text text-anchor="middle" x="469" y="-103.45" font-family="Helvetica,sans-Serif" font-weight="bold" font-size="9.00">Counter</text>
</g>
<g id="clust4" class="cluster">
<title>cluster_src/components/LocalCounter</title>
<path fill="#ffffff" stroke="black" stroke-width="2" d="M227,-48C227,-48 371,-48 371,-48 377,-48 383,-54 383,-60 383,-60 383,-88 383,-88 383,-94 377,-100 371,-100 371,-100 227,-100 227,-100 221,-100 215,-94 215,-88 215,-88 215,-60 215,-60 215,-54 221,-48 227,-48"/>
<text text-anchor="middle" x="299" y="-87.45" font-family="Helvetica,sans-Serif" font-weight="bold" font-size="9.00">LocalCounter</text>
</g>
<g id="clust5" class="cluster">
<title>cluster_src/components/OperandButton</title>
<path fill="#ffffff" stroke="black" stroke-width="2" d="M567,-29C567,-29 717.75,-29 717.75,-29 723.75,-29 729.75,-35 729.75,-41 729.75,-41 729.75,-69 729.75,-69 729.75,-75 723.75,-81 717.75,-81 717.75,-81 567,-81 567,-81 561,-81 555,-75 555,-69 555,-69 555,-41 555,-41 555,-35 561,-29 567,-29"/>
<text text-anchor="middle" x="642.38" y="-68.45" font-family="Helvetica,sans-Serif" font-weight="bold" font-size="9.00">OperandButton</text>
</g>
<!-- src/App.tsx -->
<g id="node1" class="node">
<title>src/App.tsx</title>
<g id="a_node1"><a xlink:href="src/App.tsx" xlink:title="App.tsx">
<path fill="#bbfeff" stroke="black" d="M131.08,-47.88C131.08,-47.88 88.92,-47.88 88.92,-47.88 85.96,-47.88 83,-44.92 83,-41.96 83,-41.96 83,-36.04 83,-36.04 83,-33.08 85.96,-30.12 88.92,-30.12 88.92,-30.12 131.08,-30.12 131.08,-30.12 134.04,-30.12 137,-33.08 137,-36.04 137,-36.04 137,-41.96 137,-41.96 137,-44.92 134.04,-47.88 131.08,-47.88"/>
<text text-anchor="start" x="95" y="-35.33" font-family="Helvetica,sans-Serif" font-size="9.00">App.tsx</text>
</a>
</g>
</g>
<!-- src/components/index.ts -->
<g id="node2" class="node">
<title>src/components/index.ts</title>
<g id="a_node2"><a xlink:href="src/components/index.ts" xlink:title="index.ts">
<path fill="#ddfeff" stroke="black" d="M201.08,-47.88C201.08,-47.88 158.92,-47.88 158.92,-47.88 155.96,-47.88 153,-44.92 153,-41.96 153,-41.96 153,-36.04 153,-36.04 153,-33.08 155.96,-30.12 158.92,-30.12 158.92,-30.12 201.08,-30.12 201.08,-30.12 204.04,-30.12 207,-33.08 207,-36.04 207,-36.04 207,-41.96 207,-41.96 207,-44.92 204.04,-47.88 201.08,-47.88"/>
<text text-anchor="start" x="164.25" y="-35.33" font-family="Helvetica,sans-Serif" font-size="9.00">index.ts</text>
</a>
</g>
</g>
<!-- src/App.tsx&#45;&gt;src/components/index.ts -->
<g id="edge1" class="edge">
<title>src/App.tsx&#45;&gt;src/components/index.ts</title>
<path fill="none" stroke="#000000" stroke-width="2" stroke-opacity="0.200000" d="M137.49,-39C139.7,-39 141.97,-39 144.24,-39"/>
<polygon fill="#000000" fill-opacity="0.200000" stroke="#000000" stroke-width="2" stroke-opacity="0.200000" points="143.9,-41.1 149.9,-39 143.9,-36.9 143.9,-41.1"/>
</g>
<!-- src/components/OperandButton/index.ts -->
<g id="node4" class="node">
<title>src/components/OperandButton/index.ts</title>
<g id="a_node4"><a xlink:href="src/components/OperandButton/index.ts" xlink:title="index.ts">
<path fill="#ddfeff" stroke="black" d="M611.08,-54.88C611.08,-54.88 568.92,-54.88 568.92,-54.88 565.96,-54.88 563,-51.92 563,-48.96 563,-48.96 563,-43.04 563,-43.04 563,-40.08 565.96,-37.12 568.92,-37.12 568.92,-37.12 611.08,-37.12 611.08,-37.12 614.04,-37.12 617,-40.08 617,-43.04 617,-43.04 617,-48.96 617,-48.96 617,-51.92 614.04,-54.88 611.08,-54.88"/>
<text text-anchor="start" x="574.25" y="-42.33" font-family="Helvetica,sans-Serif" font-size="9.00">index.ts</text>
</a>
</g>
</g>
<!-- src/components/index.ts&#45;&gt;src/components/OperandButton/index.ts -->
<g id="edge10" class="edge">
<title>src/components/index.ts&#45;&gt;src/components/OperandButton/index.ts</title>
<path fill="none" stroke="#000000" stroke-width="2" stroke-opacity="0.200000" d="M207.32,-34.07C209.91,-33.67 212.5,-33.31 215,-33 266.52,-26.7 279.6,-25 331.5,-25 331.5,-25 331.5,-25 427,-25 480.4,-25 494.63,-20.57 547,-31 550.67,-31.73 554.46,-32.72 558.18,-33.85"/>
<polygon fill="#000000" fill-opacity="0.200000" stroke="#000000" stroke-width="2" stroke-opacity="0.200000" points="557.45,-35.82 563.8,-35.71 558.77,-31.83 557.45,-35.82"/>
</g>
<!-- src/components/Counter/index.ts -->
<g id="node5" class="node">
<title>src/components/Counter/index.ts</title>
<g id="a_node5"><a xlink:href="src/components/Counter/index.ts" xlink:title="index.ts">
<path fill="#ddfeff" stroke="black" d="M447.08,-66.88C447.08,-66.88 404.92,-66.88 404.92,-66.88 401.96,-66.88 399,-63.92 399,-60.96 399,-60.96 399,-55.04 399,-55.04 399,-52.08 401.96,-49.12 404.92,-49.12 404.92,-49.12 447.08,-49.12 447.08,-49.12 450.04,-49.12 453,-52.08 453,-55.04 453,-55.04 453,-60.96 453,-60.96 453,-63.92 450.04,-66.88 447.08,-66.88"/>
<text text-anchor="start" x="410.25" y="-54.33" font-family="Helvetica,sans-Serif" font-size="9.00">index.ts</text>
</a>
</g>
</g>
<!-- src/components/index.ts&#45;&gt;src/components/Counter/index.ts -->
<g id="edge8" class="edge">
<title>src/components/index.ts&#45;&gt;src/components/Counter/index.ts</title>
<path fill="none" stroke="#000000" stroke-width="2" stroke-opacity="0.200000" d="M207.37,-37.53C246.15,-35.88 320.7,-34.63 383,-45 385.4,-45.4 387.85,-45.9 390.31,-46.47"/>
<polygon fill="#000000" fill-opacity="0.200000" stroke="#000000" stroke-width="2" stroke-opacity="0.200000" points="389.33,-48.39 395.67,-47.88 390.4,-44.33 389.33,-48.39"/>
</g>
<!-- src/components/LocalCounter/index.ts -->
<g id="node8" class="node">
<title>src/components/LocalCounter/index.ts</title>
<g id="a_node8"><a xlink:href="src/components/LocalCounter/index.ts" xlink:title="index.ts">
<path fill="#ddfeff" stroke="black" d="M271.08,-73.88C271.08,-73.88 228.92,-73.88 228.92,-73.88 225.96,-73.88 223,-70.92 223,-67.96 223,-67.96 223,-62.04 223,-62.04 223,-59.08 225.96,-56.12 228.92,-56.12 228.92,-56.12 271.08,-56.12 271.08,-56.12 274.04,-56.12 277,-59.08 277,-62.04 277,-62.04 277,-67.96 277,-67.96 277,-70.92 274.04,-73.88 271.08,-73.88"/>
<text text-anchor="start" x="234.25" y="-61.33" font-family="Helvetica,sans-Serif" font-size="9.00">index.ts</text>
</a>
</g>
</g>
<!-- src/components/index.ts&#45;&gt;src/components/LocalCounter/index.ts -->
<g id="edge9" class="edge">
<title>src/components/index.ts&#45;&gt;src/components/LocalCounter/index.ts</title>
<path fill="none" stroke="#000000" stroke-width="2" stroke-opacity="0.200000" d="M205.17,-48.24C208.87,-49.66 212.75,-51.14 216.6,-52.61"/>
<polygon fill="#000000" fill-opacity="0.200000" stroke="#000000" stroke-width="2" stroke-opacity="0.200000" points="215.73,-54.53 222.08,-54.71 217.23,-50.6 215.73,-54.53"/>
</g>
<!-- src/components/Counter/Counter.tsx -->
<g id="node3" class="node">
<title>src/components/Counter/Counter.tsx</title>
<g id="a_node3"><a xlink:href="src/components/Counter/Counter.tsx" xlink:title="Counter.tsx">
<path fill="#bbfeff" stroke="black" d="M527.83,-59.88C527.83,-59.88 477.17,-59.88 477.17,-59.88 474.21,-59.88 471.25,-56.92 471.25,-53.96 471.25,-53.96 471.25,-48.04 471.25,-48.04 471.25,-45.08 474.21,-42.12 477.17,-42.12 477.17,-42.12 527.83,-42.12 527.83,-42.12 530.79,-42.12 533.75,-45.08 533.75,-48.04 533.75,-48.04 533.75,-53.96 533.75,-53.96 533.75,-56.92 530.79,-59.88 527.83,-59.88"/>
<text text-anchor="start" x="479.25" y="-47.33" font-family="Helvetica,sans-Serif" font-size="9.00">Counter.tsx</text>
</a>
</g>
</g>
<!-- src/components/Counter/Counter.tsx&#45;&gt;src/components/OperandButton/index.ts -->
<g id="edge2" class="edge">
<title>src/components/Counter/Counter.tsx&#45;&gt;src/components/OperandButton/index.ts</title>
<path fill="none" stroke="#000000" stroke-width="2" stroke-opacity="0.200000" d="M533.88,-49.22C540.35,-48.84 547.23,-48.44 553.86,-48.05"/>
<polygon fill="#000000" fill-opacity="0.200000" stroke="#000000" stroke-width="2" stroke-opacity="0.200000" points="553.79,-50.16 559.66,-47.72 553.55,-45.97 553.79,-50.16"/>
</g>
<!-- src/components/OperandButton/OperandButton.tsx -->
<g id="node9" class="node">
<title>src/components/OperandButton/OperandButton.tsx</title>
<g id="a_node9"><a xlink:href="src/components/OperandButton/OperandButton.tsx" xlink:title="OperandButton.tsx">
<path fill="#bbfeff" stroke="black" d="M715.83,-54.88C715.83,-54.88 635.92,-54.88 635.92,-54.88 632.96,-54.88 630,-51.92 630,-48.96 630,-48.96 630,-43.04 630,-43.04 630,-40.08 632.96,-37.12 635.92,-37.12 635.92,-37.12 715.83,-37.12 715.83,-37.12 718.79,-37.12 721.75,-40.08 721.75,-43.04 721.75,-43.04 721.75,-48.96 721.75,-48.96 721.75,-51.92 718.79,-54.88 715.83,-54.88"/>
<text text-anchor="start" x="638" y="-42.33" font-family="Helvetica,sans-Serif" font-size="9.00">OperandButton.tsx</text>
</a>
</g>
</g>
<!-- src/components/OperandButton/index.ts&#45;&gt;src/components/OperandButton/OperandButton.tsx -->
<g id="edge7" class="edge">
<title>src/components/OperandButton/index.ts&#45;&gt;src/components/OperandButton/OperandButton.tsx</title>
<path fill="none" stroke="#000000" stroke-width="2" stroke-opacity="0.200000" d="M617.08,-46C618.34,-46 619.63,-46 620.93,-46"/>
<polygon fill="#000000" fill-opacity="0.200000" stroke="#000000" stroke-width="2" stroke-opacity="0.200000" points="620.68,-48.1 626.68,-46 620.68,-43.9 620.68,-48.1"/>
</g>
<!-- src/components/Counter/index.ts&#45;&gt;src/components/Counter/Counter.tsx -->
<g id="edge3" class="edge">
<title>src/components/Counter/index.ts&#45;&gt;src/components/Counter/Counter.tsx</title>
<path fill="none" stroke="#000000" stroke-width="2" stroke-opacity="0.200000" d="M453.48,-55.51C456.19,-55.26 458.99,-54.99 461.81,-54.73"/>
<polygon fill="#000000" fill-opacity="0.200000" stroke="#000000" stroke-width="2" stroke-opacity="0.200000" points="462,-56.82 467.77,-54.17 461.6,-52.64 462,-56.82"/>
</g>
<!-- src/components/Counter/useCounter.ts -->
<g id="node6" class="node">
<title>src/components/Counter/useCounter.ts</title>
<g id="a_node6"><a xlink:href="src/components/Counter/useCounter.ts" xlink:title="useCounter.ts">
<path fill="#ddfeff" stroke="black" d="M533.08,-89.88C533.08,-89.88 471.92,-89.88 471.92,-89.88 468.96,-89.88 466,-86.92 466,-83.96 466,-83.96 466,-78.04 466,-78.04 466,-75.08 468.96,-72.12 471.92,-72.12 471.92,-72.12 533.08,-72.12 533.08,-72.12 536.04,-72.12 539,-75.08 539,-78.04 539,-78.04 539,-83.96 539,-83.96 539,-86.92 536.04,-89.88 533.08,-89.88"/>
<text text-anchor="start" x="474" y="-77.33" font-family="Helvetica,sans-Serif" font-size="9.00">useCounter.ts</text>
</a>
</g>
</g>
<!-- src/components/Counter/index.ts&#45;&gt;src/components/Counter/useCounter.ts -->
<g id="edge4" class="edge">
<title>src/components/Counter/index.ts&#45;&gt;src/components/Counter/useCounter.ts</title>
<path fill="none" stroke="#000000" stroke-width="2" stroke-opacity="0.200000" d="M453.48,-66.17C456.54,-67.12 459.71,-68.1 462.9,-69.08"/>
<polygon fill="#000000" fill-opacity="0.200000" stroke="#000000" stroke-width="2" stroke-opacity="0.200000" points="462.06,-71.02 468.41,-70.78 463.29,-67.01 462.06,-71.02"/>
</g>
<!-- src/components/LocalCounter/LocalCounter.tsx -->
<g id="node7" class="node">
<title>src/components/LocalCounter/LocalCounter.tsx</title>
<g id="a_node7"><a xlink:href="src/components/LocalCounter/LocalCounter.tsx" xlink:title="LocalCounter.tsx">
<path fill="#bbfeff" stroke="black" d="M369.08,-73.88C369.08,-73.88 295.92,-73.88 295.92,-73.88 292.96,-73.88 290,-70.92 290,-67.96 290,-67.96 290,-62.04 290,-62.04 290,-59.08 292.96,-56.12 295.92,-56.12 295.92,-56.12 369.08,-56.12 369.08,-56.12 372.04,-56.12 375,-59.08 375,-62.04 375,-62.04 375,-67.96 375,-67.96 375,-70.92 372.04,-73.88 369.08,-73.88"/>
<text text-anchor="start" x="298" y="-61.33" font-family="Helvetica,sans-Serif" font-size="9.00">LocalCounter.tsx</text>
</a>
</g>
</g>
<!-- src/components/LocalCounter/LocalCounter.tsx&#45;&gt;src/components/Counter/index.ts -->
<g id="edge5" class="edge">
<title>src/components/LocalCounter/LocalCounter.tsx&#45;&gt;src/components/Counter/index.ts</title>
<path fill="none" stroke="#000000" stroke-width="2" stroke-opacity="0.200000" d="M375.23,-61.81C380.06,-61.44 384.94,-61.06 389.67,-60.7"/>
<polygon fill="#000000" fill-opacity="0.200000" stroke="#000000" stroke-width="2" stroke-opacity="0.200000" points="389.67,-62.81 395.5,-60.26 389.35,-58.62 389.67,-62.81"/>
</g>
<!-- src/components/LocalCounter/index.ts&#45;&gt;src/components/LocalCounter/LocalCounter.tsx -->
<g id="edge6" class="edge">
<title>src/components/LocalCounter/index.ts&#45;&gt;src/components/LocalCounter/LocalCounter.tsx</title>
<path fill="none" stroke="#000000" stroke-width="2" stroke-opacity="0.200000" d="M277.36,-65C278.47,-65 279.59,-65 280.73,-65"/>
<polygon fill="#000000" fill-opacity="0.200000" stroke="#000000" stroke-width="2" stroke-opacity="0.200000" points="280.59,-67.1 286.59,-65 280.59,-62.9 280.59,-67.1"/>
</g>
<!-- src/main.tsx -->
<g id="node10" class="node">
<title>src/main.tsx</title>
<g id="a_node10"><a xlink:href="src/main.tsx" xlink:title="main.tsx">
<path fill="#bbfeff" stroke="black" d="M64.08,-47.88C64.08,-47.88 21.92,-47.88 21.92,-47.88 18.96,-47.88 16,-44.92 16,-41.96 16,-41.96 16,-36.04 16,-36.04 16,-33.08 18.96,-30.12 21.92,-30.12 21.92,-30.12 64.08,-30.12 64.08,-30.12 67.04,-30.12 70,-33.08 70,-36.04 70,-36.04 70,-41.96 70,-41.96 70,-44.92 67.04,-47.88 64.08,-47.88"/>
<text text-anchor="start" x="26.12" y="-35.33" font-family="Helvetica,sans-Serif" font-size="9.00">main.tsx</text>
</a>
</g>
</g>
<!-- src/main.tsx&#45;&gt;src/App.tsx -->
<g id="edge11" class="edge">
<title>src/main.tsx&#45;&gt;src/App.tsx</title>
<path fill="none" stroke="#000000" stroke-width="2" stroke-opacity="0.200000" d="M70.44,-39C71.58,-39 72.74,-39 73.9,-39"/>
<polygon fill="#000000" fill-opacity="0.200000" stroke="#000000" stroke-width="2" stroke-opacity="0.200000" points="73.77,-41.1 79.77,-39 73.77,-36.9 73.77,-41.1"/>
</g>
</g>
</svg>
