<?xml version="1.0" encoding="UTF-8" standalone="no"?>
<!DOCTYPE svg PUBLIC "-//W3C//DTD SVG 1.1//EN"
 "http://www.w3.org/Graphics/SVG/1.1/DTD/svg11.dtd">
<!-- Generated by graphviz version 10.0.1 (20240210.2158)
 -->
<!-- Title: dependency&#45;cruiser output Pages: 1 -->
<svg width="244pt" height="130pt"
 viewBox="0.00 0.00 244.25 130.00" xmlns="http://www.w3.org/2000/svg" xmlns:xlink="http://www.w3.org/1999/xlink">
<g id="graph0" class="graph" transform="scale(1 1) rotate(0) translate(4 126)">
<title>dependency&#45;cruiser output</title>
<polygon fill="white" stroke="none" points="-4,4 -4,-126 240.25,-126 240.25,4 -4,4"/>
<g id="clust1" class="cluster">
<title>cluster_node_modules</title>
<path fill="#ffffff" stroke="black" stroke-width="2" d="M165,-8C165,-8 219.25,-8 219.25,-8 225.25,-8 231.25,-14 231.25,-20 231.25,-20 231.25,-78 231.25,-78 231.25,-84 225.25,-90 219.25,-90 219.25,-90 165,-90 165,-90 159,-90 153,-84 153,-78 153,-78 153,-20 153,-20 153,-14 159,-8 165,-8"/>
<text text-anchor="middle" x="192.12" y="-77.45" font-family="Helvetica,sans-Serif" font-weight="bold" font-size="9.00">node_modules</text>
</g>
<g id="clust2" class="cluster">
<title>cluster_src</title>
<path fill="#ffffff" stroke="black" stroke-width="2" d="M20,-62C20,-62 133,-62 133,-62 139,-62 145,-68 145,-74 145,-74 145,-102 145,-102 145,-108 139,-114 133,-114 133,-114 20,-114 20,-114 14,-114 8,-108 8,-102 8,-102 8,-74 8,-74 8,-68 14,-62 20,-62"/>
<text text-anchor="middle" x="76.5" y="-101.45" font-family="Helvetica,sans-Serif" font-weight="bold" font-size="9.00">src</text>
</g>
<!-- node_modules/react -->
<g id="node1" class="node">
<title>node_modules/react</title>
<g id="a_node1"><a xlink:href="https://www.npmjs.com/package/react" xlink:title="react">
<polygon fill="#c40b0a" fill-opacity="0.101961" stroke="black" points="218.62,-63.88 166.6,-63.88 164.62,-61.9 164.62,-46.12 216.65,-46.12 218.62,-48.1 218.62,-63.88"/>
<polyline fill="none" stroke="black" points="216.65,-61.9 164.62,-61.9"/>
<polyline fill="none" stroke="black" points="216.65,-61.9 216.65,-46.12"/>
<polyline fill="none" stroke="black" points="216.65,-61.9 218.62,-63.88"/>
<text text-anchor="start" x="181.5" y="-51.33" font-family="Helvetica,sans-Serif" font-size="9.00" fill="#c40b0a">react</text>
</a>
</g>
</g>
<!-- node_modules/react&#45;dom -->
<g id="node2" class="node">
<title>node_modules/react&#45;dom</title>
<g id="a_node2"><a xlink:href="https://www.npmjs.com/package/react-dom" xlink:title="react&#45;dom">
<polygon fill="#c40b0a" fill-opacity="0.101961" stroke="black" points="220.25,-33.88 164.97,-33.88 163,-31.9 163,-16.12 218.28,-16.12 220.25,-18.1 220.25,-33.88"/>
<polyline fill="none" stroke="black" points="218.28,-31.9 163,-31.9"/>
<polyline fill="none" stroke="black" points="218.28,-31.9 218.28,-16.12"/>
<polyline fill="none" stroke="black" points="218.28,-31.9 220.25,-33.88"/>
<text text-anchor="start" x="171" y="-21.32" font-family="Helvetica,sans-Serif" font-size="9.00" fill="#c40b0a">react&#45;dom</text>
</a>
</g>
</g>
<!-- src/App.tsx -->
<g id="node3" class="node">
<title>src/App.tsx</title>
<g id="a_node3"><a xlink:href="src/App.tsx" xlink:title="App.tsx">
<path fill="#bbfeff" stroke="black" d="M131.08,-87.88C131.08,-87.88 88.92,-87.88 88.92,-87.88 85.96,-87.88 83,-84.92 83,-81.96 83,-81.96 83,-76.04 83,-76.04 83,-73.08 85.96,-70.12 88.92,-70.12 88.92,-70.12 131.08,-70.12 131.08,-70.12 134.04,-70.12 137,-73.08 137,-76.04 137,-76.04 137,-81.96 137,-81.96 137,-84.92 134.04,-87.88 131.08,-87.88"/>
<text text-anchor="start" x="95" y="-75.33" font-family="Helvetica,sans-Serif" font-size="9.00">App.tsx</text>
</a>
</g>
</g>
<!-- src/App.tsx&#45;&gt;node_modules/react -->
<g id="edge1" class="edge">
<title>src/App.tsx&#45;&gt;node_modules/react</title>
<path fill="none" stroke="#000000" stroke-opacity="0.200000" d="M137.07,-71.14C143.47,-69.21 150.4,-67.12 157.09,-65.11"/>
<polygon fill="#000000" fill-opacity="0.200000" stroke="#000000" stroke-opacity="0.200000" points="157.63,-67.14 162.77,-63.4 156.42,-63.12 157.63,-67.14"/>
</g>
<!-- src/main.tsx -->
<g id="node4" class="node">
<title>src/main.tsx</title>
<g id="a_node4"><a xlink:href="src/main.tsx" xlink:title="main.tsx">
<path fill="#bbfeff" stroke="black" d="M64.08,-87.88C64.08,-87.88 21.92,-87.88 21.92,-87.88 18.96,-87.88 16,-84.92 16,-81.96 16,-81.96 16,-76.04 16,-76.04 16,-73.08 18.96,-70.12 21.92,-70.12 21.92,-70.12 64.08,-70.12 64.08,-70.12 67.04,-70.12 70,-73.08 70,-76.04 70,-76.04 70,-81.96 70,-81.96 70,-84.92 67.04,-87.88 64.08,-87.88"/>
<text text-anchor="start" x="26.12" y="-75.33" font-family="Helvetica,sans-Serif" font-size="9.00">main.tsx</text>
</a>
</g>
</g>
<!-- src/main.tsx&#45;&gt;node_modules/react -->
<g id="edge3" class="edge">
<title>src/main.tsx&#45;&gt;node_modules/react</title>
<path fill="none" stroke="#000000" stroke-opacity="0.200000" d="M65.11,-69.63C70.82,-67.44 77.06,-65.36 83,-64 107.36,-58.42 135.53,-56.21 156.94,-55.37"/>
<polygon fill="#000000" fill-opacity="0.200000" stroke="#000000" stroke-opacity="0.200000" points="156.77,-57.48 162.7,-55.18 156.63,-53.28 156.77,-57.48"/>
</g>
<!-- src/main.tsx&#45;&gt;node_modules/react&#45;dom -->
<g id="edge4" class="edge">
<title>src/main.tsx&#45;&gt;node_modules/react&#45;dom</title>
<path fill="none" stroke="#000000" stroke-opacity="0.200000" d="M55.69,-69.7C63.13,-64.17 73.2,-57.39 83,-53 106.17,-42.62 133.93,-35.51 155.46,-31.06"/>
<polygon fill="#000000" fill-opacity="0.200000" stroke="#000000" stroke-opacity="0.200000" points="155.84,-33.13 161.31,-29.89 155.01,-29.01 155.84,-33.13"/>
</g>
<!-- src/main.tsx&#45;&gt;src/App.tsx -->
<g id="edge2" class="edge">
<title>src/main.tsx&#45;&gt;src/App.tsx</title>
<path fill="none" stroke="#000000" stroke-width="2" stroke-opacity="0.200000" d="M70.44,-79C71.58,-79 72.74,-79 73.9,-79"/>
<polygon fill="#000000" fill-opacity="0.200000" stroke="#000000" stroke-width="2" stroke-opacity="0.200000" points="73.77,-81.1 79.77,-79 73.77,-76.9 73.77,-81.1"/>
</g>
</g>
</svg>
